<?xml version="1.0"?>
<svg xmlns="http://www.w3.org/2000/svg" width="82" height="32" viewBox="0 0 82 32" fill="none">
<path d="M6.82725 11.7825C6.82725 15.2157 7.51379 16.8344 9.61321 16.8344C11.7939 16.8344 12.5202 15.1397 12.5202 11.4361C12.5202 8.04654 11.7939 6.39223 9.7011 6.39223C7.63319 6.38414 6.82725 8.07891 6.82725 11.7825ZM2.26525 27.5065C2.26525 29.7128 4.56698 31.1712 8.96647 31.1712C13.6495 31.1712 16.0325 29.8763 16.0325 27.7817C16.0325 26.4025 14.943 25.6531 12.8436 25.4572C9.3711 25.1416 6.30654 25.5754 4.0015 24.9053C2.87053 25.4961 2.26525 26.4414 2.26525 27.5065ZM17.7688 11.5462C17.7688 14.7835 15.0641 17.0238 9.80889 17.6146C6.78082 17.9303 4.96331 18.2443 4.96331 19.6235C4.96331 21.0414 7.62821 20.8051 12.0294 20.9184C16.8385 21.0366 19.3375 22.3364 19.3375 25.6871C19.3375 29.5104 15.5831 32 8.92169 32C3.10767 32 0 30.2194 0 27.704C0 26.8364 0.402969 26.0853 1.17077 25.4572C1.7455 25.0185 2.40476 24.697 3.10933 24.5119C1.94354 23.8418 1.37805 22.8236 1.37805 21.5173C1.37805 18.9161 3.47747 17.4576 7.67962 17.2213C3.64164 16.5123 1.54388 14.6201 1.54388 11.7825C1.54388 8.59042 4.61175 5.91148 9.45733 5.67353C9.81552 2.08812 11.6728 0 13.7324 0C15.0591 0 15.9529 0.90647 15.9529 2.04927C15.9529 3.38955 15.0243 4.33487 13.7722 4.33487C13.0044 4.33487 12.4804 3.86221 11.8751 3.86221C10.8652 3.86221 10.3827 4.41418 10.2599 5.714C14.943 5.95033 17.7688 8.35409 17.7688 11.5413V11.5462ZM24.8796 14.892C24.8796 20.5672 26.2925 23.3643 29.3205 23.3643C32.3486 23.3643 33.798 20.5672 33.798 14.892C33.798 9.21685 32.3055 6.37928 29.3205 6.37928C26.2991 6.38414 24.8796 9.22657 24.8796 14.892ZM39.2919 14.892C39.2919 20.2515 35.2142 24.1526 29.3189 24.1526C23.4236 24.1526 19.3939 20.2952 19.3939 14.892C19.3939 9.5325 23.4302 5.63144 29.3255 5.63144C35.2208 5.63144 39.2986 9.53574 39.2986 14.892H39.2919ZM46.5537 14.892C46.5537 20.5672 47.9665 23.3643 50.9946 23.3643C54.0227 23.3643 55.472 20.5672 55.472 14.892C55.472 9.21685 53.9796 6.37928 50.9946 6.37928C47.9665 6.38414 46.5537 9.22657 46.5537 14.892ZM60.966 14.892C60.966 20.2515 56.8882 24.1526 50.9946 24.1526C45.101 24.1526 41.063 20.2952 41.063 14.892C41.063 9.5325 45.0993 5.63144 50.9946 5.63144C56.8899 5.63144 60.9677 9.53574 60.9677 14.892H60.966ZM72.0186 23.1716C74.7631 23.1716 76.8626 20.4522 76.8626 15.4472C76.8626 10.7967 74.6023 8.03844 72.0982 8.03844C70.8877 8.03844 69.8363 8.55157 68.7468 9.53574V18.008C68.7468 21.3975 69.6357 23.17 72.017 23.17L72.0186 23.1716ZM68.7468 27.7024C68.7468 29.3211 69.0304 30.1854 70.0734 30.4995C70.9208 30.7763 71.5261 30.6613 71.5261 31.1696C71.5261 31.4448 71.3238 31.6423 70.9606 31.6423H61.6426C61.5754 31.6489 61.5075 31.6416 61.4434 31.6207C61.3794 31.5999 61.3205 31.566 61.2709 31.5213C61.2212 31.4767 61.1818 31.4222 61.1552 31.3616C61.1287 31.301 61.1156 31.2355 61.1169 31.1696C61.1169 30.6969 61.6824 30.8151 62.3689 30.5399C63.4585 30.1061 63.742 29.3971 63.742 27.7024V11.7048C63.742 10.01 63.3789 9.37872 62.1268 8.86722C61.4818 8.59042 60.9561 8.63089 60.9561 8.19708C60.9561 7.52694 63.4601 7.68557 68.7501 5.75446V8.4334C71.1314 6.58162 73.1098 5.63468 75.2175 5.63468C79.093 5.63468 82 8.7879 82 13.5954C82 19.7028 77.7614 23.9988 71.624 23.9988C70.6544 23.9926 69.6901 23.8598 68.7568 23.6038V27.7024H68.7468Z" fill="black"/>
</svg>
