<?xml version="1.0"?>
<svg xmlns="http://www.w3.org/2000/svg" width="245" height="32" viewBox="0 0 245 32" fill="none">
<path d="M18.365 3.30579C18.365 0.661157 15.8365 0 13.8403 0V0.396694C15.038 0.396694 15.9696 0.793389 15.9696 1.71901C15.9696 2.24793 15.5703 3.04132 14.3726 3.04132C13.4411 3.04132 11.4449 2.5124 9.98099 1.98347C8.25095 1.32231 6.65399 0.793388 5.32319 0.793388C2.6616 0.793388 0.798479 2.77686 0.798479 5.02479C0.798479 7.00826 2.26236 7.66942 2.79468 7.93388L2.92776 7.66942C2.6616 7.40496 2.26236 7.1405 2.26236 6.34711C2.26236 5.81818 2.79468 4.89256 4.12547 4.89256C5.32319 4.89256 6.92015 5.42149 9.04943 6.08264C10.9125 6.61157 12.9087 7.00826 13.9734 7.1405V11.2397L11.9772 12.9587V13.0909L13.9734 14.8099V20.4959C12.9087 21.157 11.711 21.2893 10.6464 21.2893C8.65019 21.2893 6.92015 20.7603 5.45627 19.1736L10.9125 16.5289V7.40496L4.25855 10.314C4.79087 8.59504 6.25475 7.40496 7.71863 6.61157L7.58555 6.21488C3.59316 7.27273 0 10.9752 0 15.4711C0 20.7603 4.39163 24.7273 9.31559 24.7273C14.6388 24.7273 18.0989 20.4959 18.0989 16.1322H17.8327C17.0342 17.8512 15.8365 19.438 14.3726 20.2314V14.8099L16.5019 13.0909V12.9587L14.3726 11.2397V7.1405C16.3688 7.1405 18.365 5.81818 18.365 3.30579ZM6.78707 17.8512L5.19011 18.6446C4.25855 17.4545 3.72624 15.8678 3.72624 13.6198C3.72624 12.6942 3.72624 11.6364 3.9924 10.843L6.78707 9.65289V17.8512ZM20.8935 20.8926L19.1635 22.2149L19.4297 22.4793L20.2281 21.8182L23.1559 24.4628L27.1483 21.8182L27.0152 21.5537L25.9506 22.2149L24.6198 20.8926V11.9008L25.6844 11.1074L27.9468 12.9587V21.0248C27.9468 26.0496 26.8821 26.843 24.6198 27.6364V28.0331C28.346 28.1653 31.8061 26.9752 31.8061 20.4959V11.7686L33.0038 10.843L32.7376 10.5785L31.673 11.3719L28.346 8.59504L24.6198 11.3719V0.528926H24.3536L19.6958 3.70248V3.96694C20.2281 4.2314 21.0266 4.49587 21.0266 5.95041L20.8935 20.8926ZM45.2471 19.438L41.9202 21.9504L38.5932 19.3058V17.719L44.8479 13.4876V13.3554L41.654 8.59504L34.7338 12.2975V21.0248L33.403 22.0826L33.6692 22.3471L34.8669 21.4215L39.3916 24.7273L45.3802 19.9669L45.2471 19.438ZM38.5932 17.1901V10.7107L38.8593 10.5785L41.7871 15.2066L38.5932 17.1901ZM70.6654 2.1157C70.6654 1.71901 70.5323 1.32231 70.3992 0.92562H70.1331C69.7338 1.98347 69.2015 2.5124 67.8707 2.5124C66.673 2.5124 65.8745 1.85124 65.3422 1.32231L61.4829 5.68595L61.749 5.95041L63.0798 4.76033C63.8783 5.42149 64.5437 5.95041 66.4068 6.08264V17.0579L58.5551 3.70248C57.8897 2.64463 56.9582 1.19008 55.0951 1.19008C52.9658 1.19008 51.1027 3.04132 51.3688 5.95041H51.7681C51.9011 5.15702 52.3004 4.2314 53.2319 4.2314C53.8973 4.2314 54.5627 4.89256 54.962 5.55372V9.91736C52.5665 9.91736 50.9696 10.9752 50.9696 12.9587C50.9696 14.0165 51.5019 15.6033 53.0989 16V15.7355C52.8327 15.4711 52.6996 15.2066 52.6996 14.8099C52.6996 14.1488 53.2319 13.6198 54.1635 13.6198H54.8289V19.1736C52.0342 19.1736 49.7719 20.7603 49.7719 23.405C49.7719 25.9174 51.9011 27.1074 54.2966 26.9752V26.7107C52.8327 26.5785 52.1673 25.9174 52.1673 24.9917C52.1673 23.8017 52.9658 23.2727 54.0304 23.2727C55.0951 23.2727 56.0266 23.9339 56.692 24.7273L60.5513 20.4959L60.2852 20.2314L59.3536 21.2893C57.8897 19.9669 57.0912 19.5702 55.3612 19.3058V6.08264L66.0076 24.595H66.8061V6.08264C68.8023 5.95041 70.6654 4.36364 70.6654 2.1157ZM80.3802 19.438L77.0532 21.9504L73.7262 19.3058V17.719L79.981 13.4876V13.3554L76.7871 8.59504L69.8669 12.2975V21.0248L68.5361 22.0826L68.8023 22.3471L70 21.4215L74.5247 24.7273L80.5133 19.9669L80.3802 19.438ZM73.7262 17.1901V10.7107L73.9924 10.5785L76.9201 15.2066L73.7262 17.1901ZM102.072 10.0496L101.141 10.7107L98.6122 8.59504L95.6844 11.2397L96.8821 12.4298V22.3471L93.6882 20.3636V12.1653L94.7528 11.5041L91.692 8.59504L88.7643 11.2397L89.962 12.4298V21.9504L89.5627 22.2149L86.7681 20.2314V12.2975C86.7681 10.4463 85.8365 9.91736 84.7719 9.2562C83.8403 8.59504 83.308 8.19835 83.308 7.27273C83.308 6.47934 84.1065 6.08264 84.5057 5.81818V5.55372C83.4411 5.55372 80.6464 6.61157 80.6464 9.12397C80.6464 10.4463 81.3118 10.9752 81.9772 11.6364C82.6426 12.2975 83.308 12.8264 83.308 14.0165V21.6859L81.8441 22.7438L82.1103 23.0083L83.4411 21.9504L86.5019 24.595L89.8289 22.3471L93.5551 24.595L100.608 20.4959V11.6364L102.338 10.314L102.072 10.0496ZM126.825 2.77686L125.494 3.96694L122.567 1.32231L118.175 4.49587V1.58678H117.776L117.909 23.0083C117.509 23.0083 116.312 22.7438 115.38 22.4793L115.114 4.6281C115.114 3.30579 114.183 1.45455 111.787 1.45455C109.392 1.45455 107.795 3.30579 107.795 5.15702H108.194C108.327 4.36364 108.726 3.70248 109.525 3.70248C110.323 3.70248 110.989 4.2314 110.989 5.95041V11.1074C108.593 11.2397 107.129 12.562 107.129 14.281C107.129 15.3388 107.662 16.9256 109.259 16.9256V16.6612C108.726 16.3967 108.593 16 108.593 15.7355C108.593 14.9421 109.259 14.6777 110.323 14.6777H110.856V22.876C108.859 23.5372 108.061 24.9917 108.061 26.5785C108.061 28.8264 109.791 30.4132 112.452 30.4132C114.316 30.4132 115.913 30.1488 117.509 29.7521C118.84 29.4876 120.57 29.0909 121.369 29.0909C122.433 29.0909 122.833 29.6198 122.833 30.281C122.833 31.2066 122.433 31.6033 121.901 31.7355V32C124.03 31.6033 125.361 30.281 125.361 28.2975C125.361 26.314 123.365 25.124 121.236 25.124C120.171 25.124 117.909 25.5207 116.312 25.7851C114.449 26.1818 112.586 26.4463 112.053 26.4463C111.122 26.4463 110.057 26.0496 110.057 24.7273C110.057 23.6694 110.989 22.7438 113.251 22.7438C114.449 22.7438 115.913 22.876 117.376 23.2727C118.973 23.6694 120.437 24.0661 121.768 24.0661C123.764 24.0661 125.494 23.405 125.494 20.6281V4.36364L127.091 3.04132L126.825 2.77686ZM121.369 10.843C120.97 11.2397 120.437 11.6364 119.772 11.6364C119.106 11.6364 118.441 11.2397 118.175 10.843V5.02479L119.506 4.09917L121.369 5.81818V10.843ZM121.369 14.8099C121.103 14.5455 120.437 14.1488 119.772 14.1488C119.106 14.1488 118.441 14.5455 118.175 14.8099V11.3719C118.441 11.6364 119.106 12.0331 119.772 12.0331C120.437 12.0331 121.103 11.6364 121.369 11.3719V14.8099ZM121.369 21.0248C121.369 22.0826 120.703 23.1405 119.24 23.1405H118.175V15.3388C118.441 15.0744 119.106 14.6777 119.772 14.6777C120.437 14.6777 120.97 15.0744 121.369 15.3388V21.0248ZM139.601 11.6364L135.342 8.59504L128.821 12.2975V20.8926L127.49 21.9504L127.624 22.2149L128.688 21.4215L132.947 24.595L139.601 20.6281V11.6364ZM132.414 19.9669V10.4463L135.741 12.8264V22.2149L132.414 19.9669ZM152.243 8.8595H151.977C151.578 9.12397 151.179 9.38843 150.779 9.38843C150.247 9.38843 149.582 9.12397 149.316 8.72727H149.049L146.787 11.2397L144.525 8.72727L140.532 11.3719L140.665 11.6364L141.73 10.9752L143.061 12.4298V20.7603L141.331 22.0826L141.597 22.3471L142.395 21.6859L145.589 24.3306L149.715 21.5537L149.582 21.2893L148.384 21.9504L146.787 20.6281V11.3719C147.452 12.0331 148.251 12.6942 149.182 12.6942C151.046 12.8264 152.11 10.9752 152.243 8.8595ZM168.213 21.5537L163.688 24.595L157.567 15.3388L161.958 8.59504H162.224C162.757 9.12397 163.555 9.65289 164.487 9.65289C165.418 9.65289 166.084 9.12397 166.483 8.59504H166.749C166.616 11.2397 164.753 12.8264 163.422 12.8264C162.091 12.8264 161.426 12.1653 160.627 11.7686L160.228 12.4298L166.882 22.2149L168.213 21.4215V21.5537ZM153.574 20.8926L151.844 22.2149L152.11 22.4793L152.909 21.8182L155.836 24.4628L159.829 21.8182L159.563 21.5537L158.498 22.2149L157.167 20.8926V0.528926H157.034L152.243 3.70248V3.96694C152.776 4.2314 153.574 4.36364 153.574 5.95041V20.8926ZM190.304 3.30579C190.304 0.661157 187.776 0 185.779 0V0.396694C186.977 0.396694 187.909 0.793389 187.909 1.71901C187.909 2.24793 187.509 3.04132 186.312 3.04132C185.38 3.04132 183.384 2.5124 181.92 1.98347C180.19 1.45455 178.593 0.92562 177.262 0.92562C174.601 0.92562 172.738 2.90909 172.738 5.15702C172.738 7.1405 174.202 7.80165 174.734 8.06612L174.867 7.80165C174.468 7.53719 174.068 7.27273 174.068 6.47934C174.068 5.95041 174.601 5.02479 175.932 5.02479C177.129 5.02479 178.726 5.55372 180.855 6.21488C182.719 6.7438 184.715 7.1405 185.779 7.27273V11.3719L183.783 13.0909V13.2231L185.779 14.9421V20.6281C184.715 21.2893 183.517 21.4215 182.452 21.4215C180.456 21.4215 178.726 20.8926 177.262 19.3058L182.719 16.6612V7.40496L176.065 10.314C176.73 8.59504 178.194 7.40496 179.525 6.47934L179.392 6.21488C175.399 7.27273 171.806 10.843 171.806 15.3388C171.806 20.6281 176.198 24.595 181.122 24.595C186.445 24.595 189.905 20.3636 189.905 16H189.639C188.84 17.719 187.643 19.3058 186.179 20.0992V14.6777L188.308 12.9587V12.8264L186.312 11.1074V7.1405C188.308 7.1405 190.304 5.81818 190.304 3.30579ZM178.726 17.8512L177.129 18.6446C176.198 17.4545 175.665 15.8678 175.665 13.6198C175.665 12.6942 175.798 11.6364 176.065 10.843L178.859 9.65289L178.726 17.8512ZM194.962 1.98347H194.829L192.167 4.2314V4.36364L194.43 6.87603H194.696L197.357 4.6281V4.49587L194.962 1.98347ZM198.954 21.5537L197.89 22.2149L196.559 20.8926V11.7686L197.89 10.843L197.624 10.5785L196.692 11.3719L194.297 8.59504L190.437 11.2397L190.703 11.6364L191.635 10.9752L192.833 12.4298V21.0248L191.103 22.3471L191.236 22.6116L192.167 21.9504L195.095 24.595L199.087 21.9504L198.954 21.5537ZM221.179 21.4215L220.247 22.0826L218.783 20.7603V11.7686L220.114 10.7107L219.848 10.4463L218.783 11.3719L215.722 8.59504L211.73 11.3719L208.669 8.59504L204.943 11.3719L202.548 8.59504L198.688 11.2397L198.821 11.6364L199.753 10.9752L201.084 12.4298V21.0248L200.019 22.0826L203.08 24.595L206.008 21.9504L204.81 20.7603V11.7686L206.008 10.9752L208.004 12.8264V20.7603L206.939 21.8182L210 24.3306L212.928 21.6859L211.73 20.4959V11.7686L212.795 11.1074L214.924 12.9587V20.8926L213.992 21.8182L217.053 24.595L221.179 21.8182V21.4215ZM232.757 19.438L229.43 21.9504L226.103 19.3058V17.719L232.357 13.4876V13.3554L229.163 8.59504L222.243 12.2975V21.2893L226.901 24.595L232.89 19.8347L232.757 19.438ZM226.103 17.1901V10.7107L226.369 10.5785L229.297 15.2066L226.103 17.1901ZM244.867 16L242.338 14.0165C244.068 12.562 244.734 10.5785 244.734 9.2562V8.46281H244.468C244.202 9.12397 243.669 9.78512 242.605 9.78512C241.54 9.78512 240.875 9.2562 240.209 8.46281L234.221 11.7686V16.5289L236.483 18.2479C234.221 20.2314 233.821 21.5537 233.821 22.6116C233.821 23.9339 234.487 24.8595 235.551 25.2562L235.684 24.9917C235.418 24.7273 235.152 24.595 235.152 23.9339C235.152 23.5372 235.684 22.876 236.749 22.876C238.08 22.876 238.878 23.8017 239.278 24.1983L245 20.7603V16H244.867ZM243.403 12.0331C242.471 13.6198 240.475 15.2066 239.278 16L237.814 14.8099V10.1818C238.346 11.5041 239.81 12.562 241.274 12.562C242.205 12.562 242.738 12.4298 243.403 12.0331ZM241.141 22.6116C240.475 21.157 238.878 20.0992 237.281 20.0992C236.882 20.0992 235.817 20.0992 234.753 20.7603C235.418 19.7025 237.148 17.8512 239.411 16.5289L241.008 17.8512L241.141 22.6116Z" fill="black"/>
</svg>
