<svg width="283" height="368" viewBox="0 0 283 368" fill="none" xmlns="http://www.w3.org/2000/svg">
<path d="M168.16 296.589C168.594 294.046 170.211 291.964 172.045 290.245C176.245 286.322 181.82 285.063 187.153 287.315C192.487 289.567 196.083 294.192 199.389 298.768C202.454 301.674 205.495 304.58 208.608 307.437C210.539 309.229 212.494 311.021 214.448 312.789C215.293 313.564 216.379 314.75 217.513 313.806C218.261 313.176 218.865 312.256 219.492 311.506C221.254 309.496 225.888 305.452 228.374 308.769C229.387 310.125 228.977 311.457 227.987 312.644C228.229 312.595 228.494 312.547 228.736 312.547C230.57 312.45 232.331 313.37 232.911 315.186C233.466 316.906 232.573 318.552 230.859 319.061C230.618 319.133 230.352 319.182 230.111 319.23C231.438 320.344 232.597 322.015 231.704 323.686C230.859 325.26 228.76 325.768 227.143 325.284C225.502 324.824 222.533 321.773 220.844 323.274C220.096 323.928 220.868 325.066 221.23 325.768C221.616 326.543 222.05 327.342 222.026 328.238C222.026 330.345 219.83 331.241 217.996 330.926C216.089 330.612 214.4 329.11 213.869 327.221C213.531 326.035 214.038 324.921 213.821 323.759C213.58 322.572 212.276 321.942 211.263 321.555C208.898 320.659 206.315 320.223 203.854 319.642C201.271 319.037 198.665 318.431 196.083 317.777C191.014 316.494 185.995 314.968 181.24 312.789C176.751 310.707 171.78 307.97 169.391 303.418C168.28 301.335 167.75 298.914 168.16 296.565V296.589Z" fill="url(#paint0_linear_138_2579)"/>
<path style="mix-blend-mode:multiply" opacity="0.46" d="M168.16 296.589C168.594 294.046 170.211 291.964 172.045 290.245C176.245 286.322 181.82 285.063 187.153 287.315C192.487 289.567 196.083 294.192 199.389 298.768C202.454 301.674 205.495 304.58 208.608 307.437C210.539 309.229 212.494 311.021 214.448 312.789C215.293 313.564 216.379 314.75 217.513 313.806C218.261 313.176 218.865 312.256 219.492 311.506C221.254 309.496 225.888 305.452 228.374 308.769C229.387 310.125 228.977 311.457 227.987 312.644C228.229 312.595 228.494 312.547 228.736 312.547C230.57 312.45 232.331 313.37 232.911 315.186C233.466 316.906 232.573 318.552 230.859 319.061C230.618 319.133 230.352 319.182 230.111 319.23C231.438 320.344 232.597 322.015 231.704 323.686C230.859 325.26 228.76 325.768 227.143 325.284C225.502 324.824 222.533 321.773 220.844 323.274C220.096 323.928 220.868 325.066 221.23 325.768C221.616 326.543 222.05 327.342 222.026 328.238C222.026 330.345 219.83 331.241 217.996 330.926C216.089 330.612 214.4 329.11 213.869 327.221C213.531 326.035 214.038 324.921 213.821 323.759C213.58 322.572 212.276 321.942 211.263 321.555C208.898 320.659 206.315 320.223 203.854 319.642C201.271 319.037 198.665 318.431 196.083 317.777C191.014 316.494 185.995 314.968 181.24 312.789C176.751 310.707 171.78 307.97 169.391 303.418C168.28 301.335 167.75 298.914 168.16 296.565V296.589Z" fill="url(#paint1_linear_138_2579)"/>
<g style="mix-blend-mode:multiply" opacity="0.25">
<path d="M229.532 319.061C229.532 319.061 224.922 315.889 220.265 317.874C220.265 317.874 230.618 312.644 229.532 319.061Z" fill="#723535"/>
</g>
<g style="mix-blend-mode:multiply" opacity="0.25">
<path d="M227.408 312.716C227.408 312.716 221.978 313.007 219.468 315.55C219.468 315.55 225.212 306.905 227.408 312.716Z" fill="#723535"/>
</g>
<g style="mix-blend-mode:multiply" opacity="0.25">
<path d="M213.99 322.306C213.99 322.306 217.562 324.848 215.848 326.858C214.135 328.868 215.148 323.928 213.99 322.306Z" fill="#723535"/>
</g>
<path style="mix-blend-mode:multiply" opacity="0.53" d="M136.11 367.976C61.0029 367.976 0.116516 359.779 0.116516 349.669C0.116516 339.558 61.0029 331.362 136.11 331.362C211.217 331.362 272.104 339.558 272.104 349.669C272.104 359.779 211.217 367.976 136.11 367.976Z" fill="url(#paint2_radial_138_2579)"/>
<path d="M90.98 305.379L121.919 346.715C121.919 346.715 116.61 349.039 115.307 351.751C114.921 352.551 115.596 353.495 116.489 353.495H131.114C132.9 353.495 134.324 352.018 134.276 350.226C134.204 347.925 133.745 344.027 132.369 338.021C127.253 315.477 134.276 305.258 134.276 305.258C134.276 305.258 100.995 256.295 90.98 305.355V305.379Z" fill="url(#paint3_linear_138_2579)"/>
<path style="mix-blend-mode:multiply" opacity="0.46" d="M90.98 305.379L121.919 346.715C121.919 346.715 116.61 349.039 115.307 351.751C114.921 352.551 115.596 353.495 116.489 353.495H131.114C132.9 353.495 134.324 352.018 134.276 350.226C134.204 347.925 133.745 344.027 132.369 338.021C127.253 315.477 134.276 305.258 134.276 305.258C134.276 305.258 100.995 256.295 90.98 305.355V305.379Z" fill="url(#paint4_linear_138_2579)"/>
<g style="mix-blend-mode:multiply" opacity="0.25">
<path d="M121.92 346.715C121.92 346.715 128.001 344.753 131.766 349.669C131.766 349.669 126.577 341.581 121.92 346.715Z" fill="#723535"/>
</g>
<path style="mix-blend-mode:multiply" opacity="0.46" d="M104.809 307.389C104.809 307.389 114.945 329.498 125.612 332.137C136.279 334.777 123.488 313.951 136.376 311.094C149.263 308.237 112.942 279.929 104.809 307.413V307.389Z" fill="url(#paint5_linear_138_2579)"/>
<path d="M32.0698 161.177C32.8663 158.658 33.7351 156.164 34.6763 153.718C38.0067 145.049 42.1095 136.695 47.0328 128.825C51.2562 122.069 56.0105 114.732 61.8509 109.283C66.9672 104.489 73.0007 100.517 78.6962 96.5702C82.4128 94.0034 86.3708 91.824 90.5459 90.129C99.765 86.424 109.274 83.276 119.12 81.8231C128.991 80.346 138.934 80.2975 148.853 81.4114C164.009 83.1065 178.61 87.2473 192.945 92.2115L201.03 94.3182C201.44 94.4635 202.116 94.6814 202.551 94.8267C220.313 102.067 240.32 90.8796 245.678 72.9603C251.084 54.7988 241.309 35.8625 224.536 27.9198C219.83 25.692 214.569 24.2875 212.108 19.2023C209.694 14.1655 210.129 7.11889 214.979 4.01933C212.639 1.30722 217.248 -1.76813 219.782 1.33143C222.702 4.9153 226.226 7.99064 230.57 9.5162C239.234 12.5431 246.015 16.2965 252.99 21.4543C263.488 29.2032 272.659 38.0661 277.848 50.319C287.429 72.9603 281.589 101.437 260.761 115.7C252.507 121.367 242.42 124.176 232.476 123.619C241.599 134.83 244.929 150.691 240.61 164.567C237.834 173.43 232.018 180.815 225.816 187.523C219.782 194.061 211.697 200.623 208.053 209.002C208.898 210.503 208.656 212.658 206.822 214.45C206.653 216.944 206.557 218.325 206.388 220.819C206.677 221.158 206.991 221.497 207.281 221.86C209.018 223.87 208.101 226.413 206.412 227.551C206.243 231.086 207.884 234.452 211.456 236.075C216.693 238.448 221.954 234.67 226.805 233.048C235.445 230.142 245.219 231.449 253.159 235.736C273.504 246.681 273.938 274.48 271.115 294.579C269.353 307.098 263.681 321.506 271.066 333.251C272.201 335.018 271.766 336.883 269.715 336.883C268.605 340.152 266.65 343.687 263.368 344.898C259.337 346.4 255.838 344.656 254.535 340.612C253.135 336.278 254.462 331.749 254.149 327.318C253.859 323.032 252.314 318.891 250.118 315.259C241.261 300.487 221.665 295.015 205.423 296.177C201.754 296.443 198.351 297.969 195.528 300.245C193.935 301.504 192.294 302.691 190.604 303.829C179.889 310.876 167.195 313.588 154.645 315.089C129.087 318.164 102.54 313.321 79.8547 301.068C67.9809 294.651 56.8793 286.055 48.0222 275.836C38.8273 265.206 32.818 252.444 29.2221 238.908C22.6818 214.257 20.7029 184.859 32.0216 161.225L32.0698 161.177ZM261.413 338.651C261.413 338.917 261.413 338.82 261.413 338.651V338.651Z" fill="url(#paint6_linear_138_2579)"/>
<path style="mix-blend-mode:multiply" opacity="0.25" d="M43.6297 258.765C53.428 271.889 65.9775 282.786 80.2164 290.802C80.9163 291.189 81.6403 291.528 82.3402 291.916L76.5723 268.548C76.5723 268.548 89.9424 276.03 95.0587 297.921C99.4752 299.713 103.988 301.311 108.549 302.691C114.221 304.386 119.965 305.742 125.781 306.832C131.283 307.873 136.858 308.89 142.482 308.842C154.066 308.721 165.795 305.113 175.569 298.89C182.809 294.216 186.863 285.959 186.405 277.411C185.898 268.039 182.423 260.629 182.423 260.629C188.867 268.838 192.607 275.837 194.345 281.818C194.924 281.43 195.552 281.067 196.203 280.752C199.292 279.324 202.695 279.324 205.905 280.292C212.421 282.229 217.972 286.879 223.643 290.438C229.218 293.925 235.445 297.049 242.202 296.492C248.429 295.984 254.245 292.23 257.793 287.145C261.582 281.697 262.668 274.771 261.34 268.306C260.085 262.131 256.586 255.011 250.697 252.081C244.06 248.788 236.869 253.171 231.27 256.634C225.284 260.315 219.347 263.802 212.228 264.625C205.977 265.351 199.558 263.705 195.069 259.104C192.318 256.295 190.484 252.614 190.194 248.764C188.553 249.757 186.646 249.999 184.909 248.57C183.702 247.577 185.415 245.882 186.622 246.851C187.539 247.602 188.939 246.899 189.711 246.245C189.928 246.052 190.146 245.834 190.315 245.592C190.387 245.083 190.459 244.575 190.604 244.066C190.749 243.509 191.183 243.243 191.618 243.219C191.69 243.025 191.763 242.807 191.835 242.613C192.728 239.732 192.728 236.559 192.511 233.557C192.294 230.772 191.883 227.503 190.339 225.13C189.663 224.088 188.673 223.217 187.37 223.241C186.55 223.241 185.729 223.653 185.15 224.258C185.536 224.694 185.97 225.13 186.501 225.469C187.781 226.34 186.574 228.423 185.295 227.551C184.571 227.067 183.992 226.51 183.461 225.905C182.688 225.953 181.892 225.372 182.254 224.452C182.254 224.403 182.302 224.355 182.326 224.331C180.999 221.982 180.613 219.149 180.975 216.388C181.337 213.627 182.326 211.036 183.292 208.47C184.185 206.096 185.126 203.723 186.236 201.447C188.287 197.161 191.063 193.141 195.069 190.478C198.351 188.298 202.333 187.16 206.219 187.765C206.074 186.652 205.929 185.513 205.808 184.4C205.688 183.431 206.894 182.971 207.618 183.358C209.718 184.496 211.335 181.445 211.021 179.702C210.635 177.474 208.825 175.73 207.329 174.181C206.798 173.648 206.87 172.655 207.57 172.268C215.51 167.957 221.809 160.814 225.067 152.363C228.422 143.645 228.325 134.032 225.043 125.314C223.136 120.229 220.12 115.604 216.282 111.778C215.414 110.906 216.282 109.453 217.465 109.744C227.07 112.214 237.4 110.616 246.064 105.869C255.403 100.736 262.161 92.1876 264.912 81.8477C267.977 70.2728 266.119 57.8988 260.761 47.3167C255.596 37.0978 247.68 29.1794 238.872 22.1086C230.666 15.5462 221.906 9.12915 216.114 0.217912C217.127 -0.145317 218.503 -0.169533 219.396 0.920156C225.284 8.06367 228.277 8.54798 233.731 10.6789C240.947 13.4879 246.884 16.9265 252.99 21.4547C263.488 29.2036 272.659 38.0664 277.848 50.3194C287.429 72.9607 281.588 101.438 260.761 115.701C252.507 121.367 242.419 124.176 232.476 123.619C241.599 134.831 244.929 150.692 240.609 164.567C237.834 173.43 232.018 180.816 225.815 187.523C219.782 194.061 211.697 200.624 208.053 209.002C208.898 210.504 208.656 212.635 206.846 214.451C206.677 216.945 206.581 218.325 206.412 220.819L207.305 221.861C209.042 223.87 208.125 226.413 206.436 227.551C206.267 231.087 207.908 234.453 211.48 236.075C216.717 238.448 221.978 234.671 226.829 233.048C235.469 230.142 245.243 231.45 253.183 235.736C273.528 246.681 273.962 274.48 271.138 294.579C269.377 307.099 263.705 321.507 271.09 333.251C272.224 335.019 271.79 336.883 269.739 336.883C268.629 340.152 266.674 343.688 263.392 344.899C259.361 346.4 255.862 344.656 254.559 340.612C253.159 336.278 254.486 331.75 254.172 327.318C253.883 323.032 252.338 318.891 250.142 315.259C241.285 300.488 221.688 295.015 205.446 296.177C201.875 296.444 198.544 297.824 195.793 300.028C194.128 301.359 192.414 302.619 190.628 303.805C186.139 306.759 181.289 308.915 176.245 310.585C169.632 312.934 162.15 314.266 155.224 314.993C155.031 314.993 154.862 315.041 154.669 315.065C147.429 315.937 140.116 316.155 132.852 315.768C131.911 315.743 131.38 315.695 131.38 315.695C131.428 315.695 131.452 315.695 131.501 315.695C119.627 314.944 107.874 312.499 96.6998 308.503C96.6998 308.551 93.1039 307.171 93.1039 307.171C92.7177 307.026 92.3316 306.881 91.9696 306.735L85.3811 304.217L85.2604 303.757C83.4504 302.885 81.6645 302.013 79.9027 301.045C68.0289 294.628 56.9274 286.031 48.0703 275.812C38.8754 265.182 32.866 252.42 29.2701 238.884C28.4496 235.809 27.7014 232.661 27.0498 229.44C31.4663 239.804 36.8722 249.732 43.6297 258.789V258.765Z" fill="url(#paint7_linear_138_2579)"/>
<path d="M108.163 155.026C108.163 155.026 121.678 134.686 129.715 140.376C138.91 146.866 137.003 137.906 129.715 133.547C122.426 129.189 114.897 134.686 108.163 155.002V155.026Z" fill="#351717"/>
<path style="mix-blend-mode:multiply" opacity="0.46" d="M133.431 141.054C133.431 141.054 142.771 154.203 138.21 207.283C133.649 260.363 84.0779 188.443 84.0779 188.443C84.0779 188.443 101.551 174.108 108.139 155.002C114.704 135.896 132.732 131.562 133.407 141.054H133.431Z" fill="url(#paint8_linear_138_2579)"/>
<path style="mix-blend-mode:multiply" opacity="0.46" d="M158.313 151.37C158.313 151.37 146.633 185.61 154.114 218.761C161.596 251.912 199.099 186.482 199.099 186.482C199.099 186.482 188.336 177.426 183.605 162.678C183.605 162.678 171.104 133.329 158.313 151.346V151.37Z" fill="url(#paint9_linear_138_2579)"/>
<path d="M183.605 162.678C183.605 162.678 170.38 142.822 162.295 148.948C149.553 158.586 157.324 139.311 163.816 140.449C166.76 140.957 176.896 142.652 183.605 162.678Z" fill="#351717"/>
<path d="M70.6596 217.938C70.6596 240.773 84.4159 259.297 103.844 256.44C123.102 253.607 138.21 237.092 138.21 214.257C138.21 191.422 128.629 180.888 110.335 179.169C90.7872 177.329 70.6596 195.103 70.6596 217.938Z" fill="#662B2B"/>
<path d="M73.0245 216.582C73.0245 238.642 86.3222 256.513 105.074 253.752C123.657 251.016 138.258 235.082 138.258 213.022C138.258 190.962 128.677 180.985 111.349 179.169C92.5005 177.183 73.0487 194.546 73.0487 216.606L73.0245 216.582Z" fill="#FFD9D9"/>
<g style="mix-blend-mode:multiply" opacity="0.46">
<path d="M88.977 185.635C83.6676 191.882 79.9992 200.939 79.9992 210.14C79.9992 232.201 93.2969 250.071 112.049 247.311C118.155 246.415 123.802 244.066 128.677 240.555C122.692 247.674 114.39 252.372 105.074 253.752C86.3223 256.513 73.0246 238.642 73.0246 216.582C73.0246 203.796 79.8303 192.221 88.977 185.635Z" fill="#FFD9D9"/>
</g>
<path d="M104.326 213.942C104.326 220.868 109.225 226.486 115.259 226.486C121.292 226.486 126.191 220.868 126.191 213.942C126.191 207.017 121.292 201.399 115.259 201.399C109.225 201.399 104.326 207.017 104.326 213.942Z" fill="#351717"/>
<path d="M105.509 213.942C105.509 220.117 109.877 225.13 115.283 225.13C120.689 225.13 125.057 220.117 125.057 213.942C125.057 207.767 120.689 202.755 115.283 202.755C109.877 202.755 105.509 207.767 105.509 213.942Z" fill="url(#paint10_radial_138_2579)"/>
<path d="M105.702 213.7C105.702 219.754 110.07 210.697 115.355 210.697C120.64 210.697 124.84 219.754 124.84 213.7C124.84 207.646 120.544 202.731 115.259 202.731C109.973 202.731 105.677 207.646 105.677 213.7H105.702Z" fill="#723535"/>
<path d="M112.942 213.627C112.58 215.565 110.456 216.34 108.887 215.613C107.319 214.887 107.077 212.368 107.777 210.528C108.718 208.106 110.89 207.38 111.952 207.84C113.135 208.373 113.328 211.642 112.942 213.603V213.627Z" fill="#FFEEEE"/>
<path d="M212.904 217.938C212.904 240.773 200.885 259.297 183.943 256.44C167.146 253.607 153.945 237.092 153.945 214.257C153.945 191.422 162.295 180.888 178.272 179.169C195.334 177.329 212.904 195.103 212.904 217.938Z" fill="#662B2B"/>
<path d="M210.876 216.582C210.876 238.642 199.268 256.513 182.905 253.752C166.688 251.016 153.945 235.082 153.945 213.022C153.945 190.962 162.295 180.985 177.427 179.169C193.886 177.183 210.876 194.546 210.876 216.606V216.582Z" fill="#FFD9D9"/>
<g style="mix-blend-mode:multiply" opacity="0.46">
<path d="M196.927 185.635C201.561 191.882 204.771 200.939 204.771 210.14C204.771 232.201 193.162 250.071 176.8 247.311C171.466 246.415 166.543 244.066 162.295 240.555C167.508 247.674 174.772 252.372 182.905 253.752C199.268 256.513 210.876 238.642 210.876 216.582C210.876 203.796 204.94 192.221 196.951 185.635H196.927Z" fill="#FFD9D9"/>
</g>
<path d="M184.233 226.486C178.955 226.486 174.676 220.87 174.676 213.942C174.676 207.015 178.955 201.399 184.233 201.399C189.511 201.399 193.79 207.015 193.79 213.942C193.79 220.87 189.511 226.486 184.233 226.486Z" fill="#351717"/>
<path d="M192.776 213.942C192.776 220.117 188.963 225.13 184.233 225.13C179.503 225.13 175.689 220.117 175.689 213.942C175.689 207.767 179.503 202.755 184.233 202.755C188.963 202.755 192.776 207.767 192.776 213.942Z" fill="url(#paint11_radial_138_2579)"/>
<path d="M192.607 213.7C192.607 219.754 188.794 210.697 184.184 210.697C179.575 210.697 175.907 219.754 175.907 213.7C175.907 207.646 179.647 202.731 184.257 202.731C188.866 202.731 192.607 207.646 192.607 213.7Z" fill="#723535"/>
<path d="M183.509 212.465C183.919 214.402 182.495 216.001 180.999 216.001C179.503 216.001 178.368 213.797 178.272 211.811C178.151 209.22 179.623 207.622 180.637 207.622C181.771 207.622 183.099 210.528 183.533 212.489L183.509 212.465Z" fill="#FFEEEE"/>
<path style="mix-blend-mode:multiply" opacity="0.46" d="M182.399 260.605C230.208 321.7 131.38 315.671 131.38 315.671C207.763 314.678 182.399 260.605 182.399 260.605Z" fill="url(#paint12_linear_138_2579)"/>
<path style="mix-blend-mode:screen" opacity="0.78" d="M179.406 103.302C179.406 103.302 113.014 64.1705 68.5598 110.519C24.0813 156.842 30.7663 213.942 30.7663 213.942C30.7663 213.942 27.0497 94.3912 179.43 103.302H179.406Z" fill="url(#paint13_linear_138_2579)"/>
<path style="mix-blend-mode:screen" d="M89.7976 104.997C83.4022 106.257 55.6001 139.335 74.0624 147.205C92.5247 155.099 109.587 101.099 89.7976 104.997Z" fill="url(#paint14_linear_138_2579)"/>
<path style="mix-blend-mode:screen" d="M63.1057 134.734C67.5463 142.071 63.4436 164.47 56.7102 163.211C49.9769 161.952 58.5444 127.179 63.1057 134.734Z" fill="url(#paint15_linear_138_2579)"/>
<path style="mix-blend-mode:screen" d="M60.2819 185.489C63.2986 190.502 60.5232 205.757 55.9378 204.886C51.3524 204.038 57.1687 180.331 60.2819 185.489Z" fill="url(#paint16_linear_138_2579)"/>
<path style="mix-blend-mode:screen" d="M67.5705 202.852C70.5872 207.864 67.8118 223.12 63.2264 222.248C58.641 221.401 64.4572 197.694 67.5705 202.852Z" fill="url(#paint17_linear_138_2579)"/>
<path style="mix-blend-mode:screen" d="M58.8339 212.78C60.6681 216.727 58.9787 228.786 56.2033 228.108C53.4279 227.43 56.9515 208.712 58.8339 212.78Z" fill="url(#paint18_linear_138_2579)"/>
<path style="mix-blend-mode:screen" d="M213.459 146.139C216.476 151.152 213.7 166.408 209.115 165.536C204.529 164.688 210.346 140.981 213.459 146.139Z" fill="url(#paint19_linear_138_2579)"/>
<path style="mix-blend-mode:screen" d="M204.722 156.068C206.556 160.015 204.867 172.074 202.092 171.396C199.341 170.718 202.84 151.999 204.722 156.068Z" fill="url(#paint20_linear_138_2579)"/>
<path style="mix-blend-mode:multiply" opacity="0.46" d="M149.408 239.877C149.408 239.877 148.949 242.492 145.426 241.669C141.902 240.821 140.406 243.679 140.406 243.679L149.432 244.26C149.432 244.26 151.266 246.633 149.432 239.877H149.408Z" fill="url(#paint21_linear_138_2579)"/>
<path d="M153.656 247.335C153.656 247.335 150.687 238.981 149.118 242.54C147.55 246.076 141.613 236.826 139.175 246.778C136.762 256.731 143.857 238.884 153.631 247.359L153.656 247.335Z" fill="#351717"/>
<path style="mix-blend-mode:multiply" opacity="0.46" d="M151.918 251.403C151.918 251.403 149.287 245.858 142.916 251.863C142.916 251.863 148.901 241.499 151.918 251.403Z" fill="url(#paint22_linear_138_2579)"/>
<path style="mix-blend-mode:multiply" opacity="0.25" d="M116.417 279.614C116.417 279.614 135.217 310.9 106.836 308.188C78.4549 305.476 71.7457 264.915 71.7457 264.915C71.7457 264.915 82.5576 275.933 87.867 292.884C92.5731 307.873 116.393 279.614 116.393 279.614H116.417Z" fill="url(#paint23_linear_138_2579)"/>
<path d="M64.5055 263.051C71.8421 263.027 77.224 268.378 81.1336 274.02C83.4746 277.41 85.6225 280.946 87.8428 284.409C89.0012 286.225 90.1355 288.065 91.3181 289.857C92.4765 291.601 93.8521 292.618 96.0241 292.4C99.8131 292.012 102.806 288.961 104.423 285.668C106.45 281.503 106.329 276.587 105.726 272.083C105.46 270.073 104.761 267.845 105.533 265.884C106.064 264.504 107.512 263.438 109.008 263.559C110.36 263.656 111.301 264.746 111.518 266.029C111.711 267.143 111.18 268.572 111.373 269.71C113.714 268.887 114.583 265.085 116.103 263.414C117.576 261.767 120.182 260.968 122.137 262.276C124.14 263.584 123.778 266.078 122.451 267.7C124.55 267.434 126.843 267.652 128.315 269.298C129.956 271.114 128.918 273.463 126.939 274.456C125.902 274.965 124.792 275.328 123.633 275.594C123.947 275.667 124.261 275.764 124.55 275.885C126.047 276.611 127.495 278.21 127.277 279.953C127.012 282.229 124.671 282.423 122.861 282.399C120.206 282.35 117.527 282.254 114.873 282.181C116.49 289.228 117.769 297.146 113.618 303.539C109.998 309.133 103.288 311.021 96.9653 310.973C83.547 310.852 70.1528 303.999 61.3681 293.998C56.9033 288.913 52.3903 282.229 52.7765 275.134C53.1143 268.596 57.6756 263.051 64.4813 263.027L64.5055 263.051Z" fill="url(#paint24_linear_138_2579)"/>
<g style="mix-blend-mode:multiply" opacity="0.25">
<path d="M110.697 270.194C110.697 270.194 111.663 265.279 110.046 264.891C108.429 264.528 110.697 270.194 110.697 270.194Z" fill="#723535"/>
</g>
<g style="mix-blend-mode:multiply" opacity="0.25">
<path d="M121.654 267.531C121.654 267.531 117.624 268.475 115.162 270.194C115.162 270.194 124.743 260 121.654 267.531Z" fill="#723535"/>
</g>
<g style="mix-blend-mode:multiply" opacity="0.25">
<path d="M122.523 275.255C122.523 275.255 118.831 273.802 115.5 275.255C115.5 275.255 118.662 273.027 123.368 272.931C128.074 272.834 122.523 275.255 122.523 275.255Z" fill="#723535"/>
</g>
<g style="mix-blend-mode:multiply" opacity="0.25">
<path d="M114.776 281.454C114.776 281.454 124.647 277.725 124.912 280.316C125.178 282.907 114.776 281.454 114.776 281.454Z" fill="#723535"/>
</g>
<g style="mix-blend-mode:multiply" opacity="0.25">
<path d="M114.921 282.205C114.921 282.205 111.639 282.98 112.218 284.699C112.218 284.699 113.352 282.956 115.259 283.682L114.921 282.181V282.205Z" fill="#723535"/>
</g>
<path d="M142.095 293.707C148.056 293.32 154.548 295.935 159.327 299.35C163.792 302.522 167.315 306.977 168.498 312.402C168.57 312.595 168.594 312.813 168.498 313.08C167.749 315.501 166.132 317.463 164.081 318.94C161.885 320.514 159.447 320.974 156.817 321.216C154.162 321.458 151.121 321.603 149.625 324.194C148.105 326.81 148.732 329.982 149.818 332.621C150.832 335.091 153.1 337.707 152.183 340.516C151.773 341.775 150.856 342.864 150.084 343.906C149.142 345.165 148.177 346.424 147.188 347.635C146.246 348.773 145.305 349.887 144.316 350.977C143.495 351.873 142.506 352.89 141.202 352.89C138.523 352.89 138.427 349.572 138.379 347.635C138.355 346.376 138.403 345.044 138.765 343.809C138.91 343.276 139.127 342.743 139.392 342.235C139.682 341.702 140.527 340.322 140.527 340.322C140.527 340.322 138.403 337.828 137.799 337.198C136.713 336.036 135.652 334.825 134.638 333.566C130.946 328.989 127.35 323.831 125.902 318.044C123.295 307.583 130.656 294.41 142.047 293.659L142.095 293.707Z" fill="url(#paint25_linear_138_2579)"/>
<path style="mix-blend-mode:multiply" opacity="0.46" d="M142.095 293.707C148.056 293.32 154.548 295.935 159.327 299.35C163.792 302.522 167.315 306.977 168.498 312.402C168.57 312.595 168.594 312.813 168.498 313.08C167.749 315.501 166.132 317.463 164.081 318.94C161.885 320.514 159.447 320.974 156.817 321.216C154.162 321.458 151.121 321.603 149.625 324.194C148.105 326.81 148.732 329.982 149.818 332.621C150.832 335.091 153.1 337.707 152.183 340.516C151.773 341.775 150.856 342.864 150.084 343.906C149.142 345.165 148.177 346.424 147.188 347.635C146.246 348.773 145.305 349.887 144.316 350.977C143.495 351.873 142.506 352.89 141.202 352.89C138.523 352.89 138.427 349.572 138.379 347.635C138.355 346.376 138.403 345.044 138.765 343.809C138.91 343.276 139.127 342.743 139.392 342.235C139.682 341.702 140.527 340.322 140.527 340.322C140.527 340.322 138.403 337.828 137.799 337.198C136.713 336.036 135.652 334.825 134.638 333.566C130.946 328.989 127.35 323.831 125.902 318.044C123.295 307.583 130.656 294.41 142.047 293.659L142.095 293.707Z" fill="url(#paint26_linear_138_2579)"/>
<g style="mix-blend-mode:multiply" opacity="0.25">
<path d="M140.551 340.346C140.551 340.346 142.457 338.748 145.643 339.934C145.643 339.934 141.854 336.447 140.551 340.346Z" fill="#723535"/>
</g>
<defs>
<linearGradient id="paint0_linear_138_2579" x1="196.885" y1="326.955" x2="203.793" y2="290.039" gradientUnits="userSpaceOnUse">
<stop stop-color="#F45E5C"/>
<stop offset="1" stop-color="#D14540"/>
</linearGradient>
<linearGradient id="paint1_linear_138_2579" x1="196.885" y1="326.955" x2="203.793" y2="290.039" gradientUnits="userSpaceOnUse">
<stop offset="0.37" stop-color="#723535"/>
<stop offset="0.52" stop-color="#733737"/>
<stop offset="0.61" stop-color="#794040"/>
<stop offset="0.69" stop-color="#844E4E"/>
<stop offset="0.75" stop-color="#926363"/>
<stop offset="0.82" stop-color="#A57E7E"/>
<stop offset="0.88" stop-color="#BC9F9F"/>
<stop offset="0.93" stop-color="#D7C6C6"/>
<stop offset="0.99" stop-color="#F6F2F2"/>
<stop offset="1" stop-color="white"/>
</linearGradient>
<radialGradient id="paint2_radial_138_2579" cx="0" cy="0" r="1" gradientUnits="userSpaceOnUse" gradientTransform="translate(136.11 347.509) rotate(180) scale(135.994 17.7389)">
<stop stop-color="#541F15"/>
<stop offset="0.09" stop-color="#6C3E35"/>
<stop offset="0.28" stop-color="#987872"/>
<stop offset="0.45" stop-color="#BCA8A4"/>
<stop offset="0.62" stop-color="#D9CDCB"/>
<stop offset="0.77" stop-color="#EEE8E7"/>
<stop offset="0.9" stop-color="#FAF9F8"/>
<stop offset="1" stop-color="white"/>
</radialGradient>
<linearGradient id="paint3_linear_138_2579" x1="112.628" y1="353.519" x2="112.628" y2="283.561" gradientUnits="userSpaceOnUse">
<stop stop-color="#FF7373"/>
<stop offset="1" stop-color="#F45E5C"/>
</linearGradient>
<linearGradient id="paint4_linear_138_2579" x1="112.628" y1="283.561" x2="112.628" y2="353.519" gradientUnits="userSpaceOnUse">
<stop offset="0.37" stop-color="#723535"/>
<stop offset="0.52" stop-color="#733737"/>
<stop offset="0.61" stop-color="#794040"/>
<stop offset="0.69" stop-color="#844E4E"/>
<stop offset="0.75" stop-color="#926363"/>
<stop offset="0.82" stop-color="#A57E7E"/>
<stop offset="0.88" stop-color="#BC9F9F"/>
<stop offset="0.93" stop-color="#D7C6C6"/>
<stop offset="0.99" stop-color="#F6F2F2"/>
<stop offset="1" stop-color="white"/>
</linearGradient>
<linearGradient id="paint5_linear_138_2579" x1="121.944" y1="295.475" x2="121.944" y2="332.355" gradientUnits="userSpaceOnUse">
<stop offset="0.37" stop-color="#723535"/>
<stop offset="0.43" stop-color="#783E3E"/>
<stop offset="0.54" stop-color="#895757"/>
<stop offset="0.67" stop-color="#A67F7F"/>
<stop offset="0.83" stop-color="#CDB7B7"/>
<stop offset="1" stop-color="white"/>
</linearGradient>
<linearGradient id="paint6_linear_138_2579" x1="125.54" y1="21.1638" x2="203.75" y2="358.779" gradientUnits="userSpaceOnUse">
<stop offset="0.2" stop-color="#31A6CE"/>
<stop offset="0.56" stop-color="#FF7373"/>
<stop offset="1" stop-color="#EF5654"/>
</linearGradient>
<linearGradient id="paint7_linear_138_2579" x1="282.312" y1="172.704" x2="27.0498" y2="172.704" gradientUnits="userSpaceOnUse">
<stop stop-color="#723535"/>
<stop offset="0.21" stop-color="#733737"/>
<stop offset="0.35" stop-color="#7A4141"/>
<stop offset="0.48" stop-color="#855050"/>
<stop offset="0.59" stop-color="#946666"/>
<stop offset="0.7" stop-color="#A88383"/>
<stop offset="0.81" stop-color="#C1A6A6"/>
<stop offset="0.9" stop-color="#DDCFCF"/>
<stop offset="1" stop-color="white"/>
</linearGradient>
<linearGradient id="paint8_linear_138_2579" x1="111.808" y1="136.211" x2="111.808" y2="226.849" gradientUnits="userSpaceOnUse">
<stop stop-color="#723535"/>
<stop offset="0.15" stop-color="#9A6F6F"/>
<stop offset="0.3" stop-color="#BEA2A2"/>
<stop offset="0.44" stop-color="#DACACA"/>
<stop offset="0.57" stop-color="#EEE7E7"/>
<stop offset="0.68" stop-color="#FAF8F8"/>
<stop offset="0.76" stop-color="white"/>
</linearGradient>
<linearGradient id="paint9_linear_138_2579" x1="175.352" y1="145.51" x2="175.352" y2="228.132" gradientUnits="userSpaceOnUse">
<stop stop-color="#723535"/>
<stop offset="0.07" stop-color="#834D4D"/>
<stop offset="0.25" stop-color="#AE8C8C"/>
<stop offset="0.42" stop-color="#D1BDBD"/>
<stop offset="0.57" stop-color="#EAE1E1"/>
<stop offset="0.69" stop-color="#F9F7F7"/>
<stop offset="0.76" stop-color="white"/>
</linearGradient>
<radialGradient id="paint10_radial_138_2579" cx="0" cy="0" r="1" gradientUnits="userSpaceOnUse" gradientTransform="translate(115.283 213.942) rotate(180) scale(17.135 17.1929)">
<stop offset="0.55" stop-color="#351717"/>
<stop offset="0.58" stop-color="#5D2929"/>
<stop offset="0.61" stop-color="#8E3F3F"/>
<stop offset="0.64" stop-color="#B65252"/>
<stop offset="0.67" stop-color="#D66060"/>
<stop offset="0.71" stop-color="#EC6A6A"/>
<stop offset="0.74" stop-color="#FA7070"/>
<stop offset="0.76" stop-color="#FF7373"/>
</radialGradient>
<radialGradient id="paint11_radial_138_2579" cx="0" cy="0" r="1" gradientUnits="userSpaceOnUse" gradientTransform="translate(187.759 213.942) scale(14.9074 17.1929)">
<stop offset="0.55" stop-color="#351717"/>
<stop offset="0.58" stop-color="#421D1D"/>
<stop offset="0.62" stop-color="#652D2D"/>
<stop offset="0.69" stop-color="#9F4747"/>
<stop offset="0.77" stop-color="#ED6B6B"/>
<stop offset="0.78" stop-color="#FF7373"/>
</radialGradient>
<linearGradient id="paint12_linear_138_2579" x1="163.43" y1="260.605" x2="163.43" y2="315.84" gradientUnits="userSpaceOnUse">
<stop stop-color="#723535"/>
<stop offset="0.07" stop-color="#7C4444"/>
<stop offset="0.2" stop-color="#996D6D"/>
<stop offset="0.39" stop-color="#C7AEAE"/>
<stop offset="0.6" stop-color="white"/>
</linearGradient>
<linearGradient id="paint13_linear_138_2579" x1="92.235" y1="92.236" x2="112.834" y2="197.934" gradientUnits="userSpaceOnUse">
<stop stop-color="#FF9792"/>
<stop offset="0.03" stop-color="#D8807B"/>
<stop offset="0.08" stop-color="#AB6562"/>
<stop offset="0.13" stop-color="#824D4A"/>
<stop offset="0.18" stop-color="#5F3836"/>
<stop offset="0.24" stop-color="#412625"/>
<stop offset="0.31" stop-color="#291817"/>
<stop offset="0.38" stop-color="#160D0D"/>
<stop offset="0.46" stop-color="#090505"/>
<stop offset="0.58" stop-color="#020101"/>
<stop offset="0.8"/>
</linearGradient>
<linearGradient id="paint14_linear_138_2579" x1="83.2332" y1="148.004" x2="83.2332" y2="104.804" gradientUnits="userSpaceOnUse">
<stop stop-color="#FF7373"/>
<stop offset="0.03" stop-color="#F06C6C"/>
<stop offset="0.19" stop-color="#B25050"/>
<stop offset="0.35" stop-color="#7B3737"/>
<stop offset="0.5" stop-color="#4F2323"/>
<stop offset="0.64" stop-color="#2C1414"/>
<stop offset="0.77" stop-color="#140909"/>
<stop offset="0.9" stop-color="#050202"/>
<stop offset="1"/>
</linearGradient>
<linearGradient id="paint15_linear_138_2579" x1="59.6063" y1="163.284" x2="59.6063" y2="133.668" gradientUnits="userSpaceOnUse">
<stop stop-color="#FF7373"/>
<stop offset="0.03" stop-color="#F06C6C"/>
<stop offset="0.19" stop-color="#B25050"/>
<stop offset="0.35" stop-color="#7B3737"/>
<stop offset="0.5" stop-color="#4F2323"/>
<stop offset="0.64" stop-color="#2C1414"/>
<stop offset="0.77" stop-color="#140909"/>
<stop offset="0.9" stop-color="#050202"/>
<stop offset="1"/>
</linearGradient>
<linearGradient id="paint16_linear_138_2579" x1="57.8927" y1="204.934" x2="57.8927" y2="184.763" gradientUnits="userSpaceOnUse">
<stop stop-color="#FF7373"/>
<stop offset="0.06" stop-color="#DD6363"/>
<stop offset="0.16" stop-color="#A94C4C"/>
<stop offset="0.26" stop-color="#7C3838"/>
<stop offset="0.37" stop-color="#562626"/>
<stop offset="0.48" stop-color="#361818"/>
<stop offset="0.59" stop-color="#1E0D0D"/>
<stop offset="0.71" stop-color="#0D0606"/>
<stop offset="0.84" stop-color="#030101"/>
<stop offset="1"/>
</linearGradient>
<linearGradient id="paint17_linear_138_2579" x1="65.1812" y1="222.297" x2="65.1812" y2="202.125" gradientUnits="userSpaceOnUse">
<stop stop-color="#FF7373"/>
<stop offset="0.06" stop-color="#DD6363"/>
<stop offset="0.16" stop-color="#A94C4C"/>
<stop offset="0.26" stop-color="#7C3838"/>
<stop offset="0.37" stop-color="#562626"/>
<stop offset="0.48" stop-color="#361818"/>
<stop offset="0.59" stop-color="#1E0D0D"/>
<stop offset="0.71" stop-color="#0D0606"/>
<stop offset="0.84" stop-color="#030101"/>
<stop offset="1"/>
</linearGradient>
<linearGradient id="paint18_linear_138_2579" x1="57.3859" y1="228.132" x2="57.3859" y2="212.199" gradientUnits="userSpaceOnUse">
<stop stop-color="#FF7373"/>
<stop offset="0.06" stop-color="#DD6363"/>
<stop offset="0.16" stop-color="#A94C4C"/>
<stop offset="0.26" stop-color="#7C3838"/>
<stop offset="0.37" stop-color="#562626"/>
<stop offset="0.48" stop-color="#361818"/>
<stop offset="0.59" stop-color="#1E0D0D"/>
<stop offset="0.71" stop-color="#0D0606"/>
<stop offset="0.84" stop-color="#030101"/>
<stop offset="1"/>
</linearGradient>
<linearGradient id="paint19_linear_138_2579" x1="211.07" y1="165.584" x2="211.07" y2="145.413" gradientUnits="userSpaceOnUse">
<stop stop-color="#FF7373"/>
<stop offset="0.06" stop-color="#DD6363"/>
<stop offset="0.16" stop-color="#A94C4C"/>
<stop offset="0.26" stop-color="#7C3838"/>
<stop offset="0.37" stop-color="#562626"/>
<stop offset="0.48" stop-color="#361818"/>
<stop offset="0.59" stop-color="#1E0D0D"/>
<stop offset="0.71" stop-color="#0D0606"/>
<stop offset="0.84" stop-color="#030101"/>
<stop offset="1"/>
</linearGradient>
<linearGradient id="paint20_linear_138_2579" x1="203.274" y1="171.42" x2="203.274" y2="155.486" gradientUnits="userSpaceOnUse">
<stop stop-color="#FF7373"/>
<stop offset="0.06" stop-color="#DD6363"/>
<stop offset="0.16" stop-color="#A94C4C"/>
<stop offset="0.26" stop-color="#7C3838"/>
<stop offset="0.37" stop-color="#562626"/>
<stop offset="0.48" stop-color="#361818"/>
<stop offset="0.59" stop-color="#1E0D0D"/>
<stop offset="0.71" stop-color="#0D0606"/>
<stop offset="0.84" stop-color="#030101"/>
<stop offset="1"/>
</linearGradient>
<linearGradient id="paint21_linear_138_2579" x1="150.228" y1="242.274" x2="140.382" y2="242.274" gradientUnits="userSpaceOnUse">
<stop stop-color="#723535"/>
<stop offset="0.2" stop-color="#9A6F6F"/>
<stop offset="0.39" stop-color="#BEA2A2"/>
<stop offset="0.58" stop-color="#DACACA"/>
<stop offset="0.75" stop-color="#EEE7E7"/>
<stop offset="0.89" stop-color="#FAF8F8"/>
<stop offset="1" stop-color="white"/>
</linearGradient>
<linearGradient id="paint22_linear_138_2579" x1="147.405" y1="247.117" x2="147.405" y2="251.863" gradientUnits="userSpaceOnUse">
<stop stop-color="#723535"/>
<stop offset="0.2" stop-color="#9A6F6F"/>
<stop offset="0.39" stop-color="#BEA2A2"/>
<stop offset="0.58" stop-color="#DACACA"/>
<stop offset="0.75" stop-color="#EEE7E7"/>
<stop offset="0.89" stop-color="#FAF8F8"/>
<stop offset="1" stop-color="white"/>
</linearGradient>
<linearGradient id="paint23_linear_138_2579" x1="88.76" y1="301.723" x2="101.599" y2="272.987" gradientUnits="userSpaceOnUse">
<stop stop-color="#723535"/>
<stop offset="0.21" stop-color="#733737"/>
<stop offset="0.35" stop-color="#7A4141"/>
<stop offset="0.48" stop-color="#855050"/>
<stop offset="0.59" stop-color="#946666"/>
<stop offset="0.7" stop-color="#A88383"/>
<stop offset="0.81" stop-color="#C1A6A6"/>
<stop offset="0.9" stop-color="#DDCFCF"/>
<stop offset="1" stop-color="white"/>
</linearGradient>
<linearGradient id="paint24_linear_138_2579" x1="90.9802" y1="310.9" x2="90.9802" y2="261.622" gradientUnits="userSpaceOnUse">
<stop stop-color="#FF7373"/>
<stop offset="0.22" stop-color="#F45E5C"/>
<stop offset="0.23" stop-color="#F25C5A"/>
<stop offset="0.48" stop-color="#DF4F4B"/>
<stop offset="0.73" stop-color="#D44742"/>
<stop offset="1" stop-color="#D14540"/>
</linearGradient>
<linearGradient id="paint25_linear_138_2579" x1="146.994" y1="352.89" x2="146.994" y2="293.659" gradientUnits="userSpaceOnUse">
<stop stop-color="#FF7373"/>
<stop offset="1" stop-color="#F45E5C"/>
</linearGradient>
<linearGradient id="paint26_linear_138_2579" x1="146.994" y1="293.659" x2="146.994" y2="352.89" gradientUnits="userSpaceOnUse">
<stop offset="0.37" stop-color="#723535"/>
<stop offset="0.52" stop-color="#733737"/>
<stop offset="0.61" stop-color="#794040"/>
<stop offset="0.69" stop-color="#844E4E"/>
<stop offset="0.75" stop-color="#926363"/>
<stop offset="0.82" stop-color="#A57E7E"/>
<stop offset="0.88" stop-color="#BC9F9F"/>
<stop offset="0.93" stop-color="#D7C6C6"/>
<stop offset="0.99" stop-color="#F6F2F2"/>
<stop offset="1" stop-color="white"/>
</linearGradient>
</defs>
</svg>
