<svg width="15" height="14" viewBox="0 0 15 14" fill="none" xmlns="http://www.w3.org/2000/svg">
<path d="M14.5359 5.82501L11.3164 8.96331L12.0767 13.3958C12.1098 13.5896 12.0302 13.7855 11.871 13.9013C11.7811 13.9669 11.6741 14 11.5671 14C11.4849 14 11.4022 13.9804 11.3268 13.9406L7.34599 11.8478L3.36574 13.94C3.19208 14.032 2.98069 14.0171 2.8215 13.9008C2.66231 13.785 2.58272 13.5891 2.61579 13.3953L3.37608 8.9628L0.156113 5.82501C0.01553 5.68753 -0.035638 5.48182 0.0253501 5.29524C0.0863382 5.10866 0.248112 4.97169 0.442964 4.94327L4.89251 4.29721L6.88238 0.264756C7.05656 -0.0882519 7.63543 -0.0882519 7.8096 0.264756L9.79947 4.29721L14.249 4.94327C14.4439 4.97169 14.6056 5.10814 14.6666 5.29524C14.7276 5.48234 14.6765 5.68701 14.5359 5.82501Z" fill="#FFA800"/>
</svg>
