<svg width="19" height="18" viewBox="0 0 19 18" fill="none" xmlns="http://www.w3.org/2000/svg">
<path d="M1.91931 8.22052C1.55589 8.22154 1.20018 8.32543 0.893331 8.52018C0.586487 8.71493 0.341051 8.99257 0.185417 9.32099C0.0297831 9.64941 -0.029688 10.0152 0.0138842 10.376C0.0574564 10.7368 0.202291 11.0779 0.431632 11.3598L5.32065 17.3488C5.49496 17.5653 5.71841 17.737 5.97242 17.8498C6.22644 17.9625 6.50369 18.013 6.78115 17.9971C7.37457 17.9653 7.91033 17.6478 8.25191 17.1259L18.4076 0.770093C18.4093 0.76738 18.411 0.764667 18.4128 0.761994C18.5081 0.615684 18.4772 0.325737 18.2805 0.143588C18.2265 0.0935679 18.1628 0.0551385 18.0933 0.0306665C18.0239 0.00619455 17.9502 -0.00380191 17.8767 0.00129304C17.8033 0.00638799 17.7316 0.0264665 17.6662 0.0602917C17.6008 0.0941169 17.5431 0.140973 17.4964 0.197974C17.4928 0.202455 17.489 0.206869 17.4852 0.211216L7.243 11.7834C7.20403 11.8274 7.1567 11.8632 7.10375 11.8888C7.05081 11.9144 6.9933 11.9292 6.93458 11.9324C6.87586 11.9356 6.8171 11.9271 6.7617 11.9073C6.7063 11.8876 6.65538 11.8571 6.61188 11.8175L3.2127 8.72421C2.85966 8.40058 2.39824 8.22089 1.91931 8.22052Z" fill="#B8B8B8"/>
</svg>
